<svg width="64" height="64" viewBox="0 0 64 64" fill="none" xmlns="http://www.w3.org/2000/svg">
<path d="M58.6667 48.0137C58.6667 49.4803 57.4773 50.667 56.0133 50.667H34.6533C33.9496 50.667 33.2747 50.3875 32.7771 49.8899C32.2795 49.3923 32 48.7174 32 48.0137C32 47.31 32.2795 46.6351 32.7771 46.1375C33.2747 45.6399 33.9496 45.3604 34.6533 45.3604H56.0133C57.48 45.3604 58.6667 46.547 58.6667 48.0137V48.0137Z" fill="#111111"/>
<path d="M58.6666 32C58.6666 33.4667 57.4773 34.6533 56.0133 34.6533H7.98665C7.28294 34.6533 6.60805 34.3738 6.11046 33.8762C5.61286 33.3786 5.33331 32.7037 5.33331 32C5.33331 31.2963 5.61286 30.6214 6.11046 30.1238C6.60805 29.6262 7.28294 29.3467 7.98665 29.3467H56.0133C57.48 29.3467 58.6666 30.536 58.6666 32V32Z" fill="#111111"/>
<path d="M56.0133 18.6402C56.717 18.6402 57.3919 18.3606 57.8895 17.863C58.3871 17.3654 58.6666 16.6905 58.6666 15.9868C58.6666 15.2831 58.3871 14.6082 57.8895 14.1106C57.3919 13.613 56.717 13.3335 56.0133 13.3335H23.9866C23.6382 13.3335 23.2932 13.4021 22.9713 13.5355C22.6493 13.6688 22.3568 13.8643 22.1105 14.1106C21.8641 14.357 21.6686 14.6495 21.5353 14.9714C21.4019 15.2934 21.3333 15.6384 21.3333 15.9868C21.3333 16.3353 21.4019 16.6803 21.5353 17.0022C21.6686 17.3241 21.8641 17.6166 22.1105 17.863C22.3568 18.1094 22.6493 18.3048 22.9713 18.4382C23.2932 18.5715 23.6382 18.6402 23.9866 18.6402H56.0133Z" fill="#111111"/>
</svg>
